<svg width="16" height="10" viewBox="0 0 16 10" fill="none" xmlns="http://www.w3.org/2000/svg">
<path fill-rule="evenodd" clip-rule="evenodd" d="M15.6234 0.666667C15.742 0.290667 15.6234 0.0173332 15.0984 0.0173332H13.3527C12.9123 0.0173332 12.709 0.256667 12.5903 0.512667C12.5903 0.512667 11.6923 2.69934 10.4383 4.117C10.0317 4.52701 9.84535 4.66367 9.62501 4.66367C9.50635 4.66367 9.35368 4.52701 9.35368 4.15134V0.649001C9.35368 0.205 9.21834 0 8.84534 0H6.10001C5.82867 0 5.65934 0.205 5.65934 0.410001C5.65934 0.837001 6.28634 0.939668 6.35401 2.13534V4.73334C6.35401 5.29701 6.25401 5.40001 6.03201 5.40001C5.43901 5.40001 3.99867 3.19634 3.13467 0.685334C2.96667 0.188 2.796 0 2.35534 0H0.593001C0.0846668 0 0 0.239 0 0.495334C0 0.956668 0.593001 3.27967 2.762 6.35434C4.20234 8.45434 6.25267 9.58301 8.09968 9.58301C9.21834 9.58301 9.35368 9.32668 9.35368 8.89968V7.31101C9.35368 6.79867 9.45535 6.71334 9.81135 6.71334C10.0653 6.71334 10.523 6.84968 11.5567 7.85768C12.7427 9.05334 12.946 9.60001 13.607 9.60001H15.3524C15.8607 9.60001 16.098 9.34368 15.9624 8.84834C15.81 8.35301 15.2337 7.63568 14.488 6.78167C14.0814 6.30367 13.4714 5.77401 13.285 5.51767C13.031 5.17601 13.0987 5.03934 13.285 4.73201C13.268 4.73201 15.4034 1.69134 15.6234 0.665334" fill="black"/>
</svg>
