<svg width="43" height="40" viewBox="0 0 43 40" fill="none" xmlns="http://www.w3.org/2000/svg">
<path d="M37.817 3.29919V1.14302H35.3047V0H42.0756V3.1108C42.0756 3.78729 41.8919 4.31911 41.5442 4.68458C40.7804 5.48768 39.1512 5.4749 38.3681 4.70005C38.0204 4.35541 37.817 3.86916 37.817 3.29919ZM41.1046 2.9854V1.14302H38.788V2.9854C38.788 3.35393 38.8849 3.64531 39.062 3.84175C39.4652 4.28901 40.4281 4.28864 40.8306 3.84175C41.0082 3.64531 41.1046 3.35393 41.1046 2.9854Z" fill="black"/>
<path d="M35.1406 8.97284C35.1406 7.9946 35.4906 7.17371 36.1077 6.59716C36.7186 6.02681 37.5888 5.69922 38.6381 5.69922C39.6932 5.69922 40.5928 6.03107 41.2288 6.60642C41.864 7.18066 42.2345 7.99571 42.2345 8.96404C42.2345 9.95387 41.8667 10.7728 41.2264 11.3462C40.5847 11.9213 39.6716 12.2462 38.5845 12.2462C37.5819 12.2462 36.7128 11.917 36.0977 11.3335C35.4972 10.7635 35.1406 9.95349 35.1406 8.97284ZM41.2635 8.96404C41.2635 8.16789 40.8467 7.43693 40.1054 7.12592C39.4791 6.86306 38.5663 6.79629 37.8161 6.93948C36.7414 7.14482 36.1115 7.84446 36.1115 8.97284C36.1115 10.0426 36.6936 10.7623 37.7185 10.9869C38.4394 11.1452 39.3343 11.0993 39.9811 10.8674C40.807 10.5714 41.2635 9.83967 41.2635 8.96404Z" fill="black"/>
<path d="M35.1406 15.9948C35.1406 13.9549 36.7402 12.8906 38.6482 12.8906C40.57 12.8906 42.2345 13.9426 42.2345 16.0308C42.2345 17.5466 41.4148 18.5654 39.9499 18.8313L39.8113 18.8564V17.7315L39.9059 17.7118C40.8456 17.5169 41.2635 16.8971 41.2635 15.932C41.2635 14.4852 39.8835 14.034 38.6571 14.034C37.3781 14.034 36.1115 14.5585 36.1115 16.0037C36.1115 17.1492 36.778 17.6698 37.8231 17.8365L37.9226 17.8522V18.9822L37.7911 18.9672C36.1165 18.7731 35.1406 17.7318 35.1406 15.9948Z" fill="black"/>
<path d="M35.2891 38.8567H38.2695V35.6528H35.2891V34.5078H42.07V35.6528H39.242V38.8567H42.07V40.0017H35.2891V38.8567Z" fill="black"/>
<path d="M35.1406 30.567C35.1406 32.6069 36.7402 33.6713 38.6482 33.6713C40.57 33.6713 42.2345 32.6192 42.2345 30.531C42.2345 29.0152 41.4148 27.8857 39.9499 27.6201L39.8113 27.595V28.72L39.9059 28.7397C40.8456 28.9342 41.2635 29.628 41.2635 30.5928C41.2635 31.8097 40.2879 32.3353 39.2483 32.4719V29.6339H38.2758V32.4938C37.1377 32.3989 36.1115 31.859 36.1115 30.5581C36.1115 29.4127 36.778 28.8551 37.8231 28.6888L37.9226 28.6729V27.543L37.7911 27.558C36.1165 27.7521 35.1406 28.83 35.1406 30.567Z" fill="black"/>
<path d="M40.2507 25.4508L35.2891 23.7003V22.6499L40.2569 20.8813H35.2891V19.7617H42.0795V21.2162L36.5853 23.1829L42.0795 25.1155V26.5704H35.2891V25.4508H40.2507Z" fill="black"/>
<path fill-rule="evenodd" clip-rule="evenodd" d="M13.1735 22.6149L11.083 22.6148L9.94923 35.4835C10.7492 36.7119 11.3204 38.2555 11.5642 39.9721H0V0C5.4749 0.00463096 10.7373 0.013525 16.5302 0.0235279C26.4953 0.0443672 32.3399 6.47556 27.8961 15.9335L24.1631 23.878L21.2951 30.1718C20.0351 32.9365 23.0097 33.3745 23.4199 31.4407L23.9602 28.1496H29.4344V31.5395C29.4344 36.4599 26.7805 39.9721 21.6057 39.9721C18.9075 39.9721 16.4943 38.687 14.948 36.6988C13.1956 34.4458 13.1735 32.5942 13.1735 29.9492V22.6149Z" fill="black"/>
<path fill-rule="evenodd" clip-rule="evenodd" d="M22.8087 15.7271C22.8087 22.405 13.7344 22.405 13.7344 15.7271C13.7344 9.04929 22.8087 9.04929 22.8087 15.7271Z" fill="white"/>
<path fill-rule="evenodd" clip-rule="evenodd" d="M23.6725 14.2738C23.6725 16.0624 22.2226 17.5123 20.4339 17.5123C18.6456 17.5123 17.1953 16.0624 17.1953 14.2738C17.1953 12.485 18.6456 11.0352 20.4339 11.0352C22.2226 11.0352 23.6725 12.485 23.6725 14.2738Z" fill="black"/>
</svg>
