<svg width="122" height="30" viewBox="0 0 122 30" fill="none" xmlns="http://www.w3.org/2000/svg">
<path fill-rule="evenodd" clip-rule="evenodd" d="M95.4144 26.5086C95.1154 27.3573 94.764 28.3656 94.3202 29.6547H91.5391L97.669 13.2734H100.538L106.643 29.6547H103.874C103.435 28.3802 103.083 27.3708 102.78 26.5086H95.4144ZM99.1414 15.9591H99.091C97.5154 20.6398 96.924 22.2789 96.222 24.2382H101.975C101.258 22.2217 100.636 20.4634 99.1414 15.9591Z" fill="black"/>
<path d="M118.33 29.5204L110.737 17.3406V29.6531H108.07V13.2617H111.068L118.832 25.6844V13.2617H121.499V29.6531H118.415L118.33 29.5204Z" fill="black"/>
<path d="M87.4743 17.6761L83.2342 29.653H80.6906L76.4071 17.6614V29.653H73.6953V13.2617H77.218L81.9818 26.5246L86.6624 13.2617H90.1861V29.653H87.4743V17.6761Z" fill="black"/>
<path fill-rule="evenodd" clip-rule="evenodd" d="M27.3984 29.6304V13.2617H34.6657C36.3775 13.2617 37.7243 13.6755 38.7308 14.5032C39.725 15.331 40.2283 16.4851 40.2283 17.9655C40.2283 19.0815 39.964 19.9848 39.4354 20.6621C38.9068 21.3396 38.1519 21.8033 37.1828 22.0418V22.067C38.3431 22.2837 39.18 23.1298 39.524 24.2367C40.0368 25.8889 40.2725 27.7936 40.4693 29.6304H37.74C37.5963 27.931 37.3025 26.0314 36.8305 24.8014C36.4429 23.7886 35.4588 23.3089 34.4141 23.3089H30.1323V29.6304H27.3984ZM30.1323 15.5695V20.9757H34.0872C35.3864 20.9757 36.7688 20.8225 37.3213 19.4704C37.4597 19.132 37.5226 18.7303 37.5226 18.2789C37.5226 17.8275 37.4597 17.4258 37.3213 17.0874C36.9326 16.1362 36.1036 15.7149 35.1064 15.632C34.8171 15.5944 34.4774 15.5823 34.0872 15.5823H30.1323V15.5695Z" fill="black"/>
<path d="M65.1085 29.9646C61.3646 29.9646 58.5938 28.1599 58.5938 24.1826V23.8989H61.0668V24.1826C61.0668 26.6994 62.9602 27.6291 65.2385 27.6291C66.182 27.6291 67.2504 27.5074 68.003 27.0293C69.047 26.3666 69.3577 24.8208 68.4454 23.9199C67.8971 23.3788 67.022 23.0936 66.2921 22.904L62.3756 21.8688C60.3285 21.3368 59.0696 20.1157 59.0696 17.9296C59.0696 14.5315 61.8233 12.9023 64.9571 12.9023C68.2823 12.9023 71.0178 14.4425 71.0178 18.0592V18.3427H68.5447V18.0592C68.5447 15.8735 66.8345 15.1515 64.8922 15.1515C63.3624 15.1515 61.6509 15.9046 61.6509 17.6496C61.6509 19.0323 62.8922 19.4071 64.0332 19.7044H64.0356L67.0801 20.5171C68.4545 20.8837 69.6518 21.1864 70.6161 22.3137C72.2968 24.2784 71.6661 27.4403 69.5543 28.8294C68.3385 29.6288 66.7158 29.9646 65.1085 29.9646Z" fill="black"/>
<path d="M49.4439 29.9991C47.0744 29.9991 45.0863 29.1544 43.6904 27.6645C42.3092 26.1903 41.5156 24.0891 41.5156 21.5561C41.5156 19.0094 42.3188 16.8383 43.7124 15.3028C45.104 13.7697 47.077 12.875 49.4221 12.875C51.8201 12.875 53.803 13.7631 55.1922 15.3084C56.5847 16.8576 57.3719 19.0617 57.3719 21.6859C57.3719 24.1057 56.5743 26.2038 55.161 27.6886C53.7805 29.1388 51.8187 29.9991 49.4439 29.9991ZM49.4221 15.219C47.8448 15.219 46.5236 15.8586 45.5957 16.9552C43.9648 18.8835 43.8893 24.0978 45.5702 26.0057C46.5006 27.0622 47.838 27.6554 49.4439 27.6554C51.0378 27.6554 52.3747 27.0625 53.3086 26.0165C55.0106 24.1107 54.9127 18.8798 53.2948 16.9569C52.3677 15.8553 51.0383 15.219 49.4221 15.219Z" fill="black"/>
<path fill-rule="evenodd" clip-rule="evenodd" d="M9.80263 16.7732H8.24738L7.40338 26.3178C7.99876 27.2288 8.42377 28.3736 8.60512 29.6466H0V0C4.07401 0.0033068 7.98984 0.0100303 12.3008 0.0173164C19.7161 0.0327295 24.0651 4.80238 20.7585 11.8176L17.9806 17.7098L15.8464 22.3781C14.9087 24.4288 17.1219 24.7534 17.4277 23.3193L17.8293 20.8784H21.9033V23.3926C21.9033 27.042 19.9282 29.6466 16.0777 29.6466C14.0697 29.6466 12.2738 28.6937 11.1231 27.219C9.81927 25.5484 9.80263 24.1747 9.80263 22.2128V16.7732Z" fill="black"/>
<path fill-rule="evenodd" clip-rule="evenodd" d="M16.9632 11.6364C16.9632 16.5894 10.2109 16.5894 10.2109 11.6364C10.2109 6.6837 16.9632 6.6837 16.9632 11.6364Z" fill="white"/>
<path fill-rule="evenodd" clip-rule="evenodd" d="M17.6166 10.5698C17.6166 11.8963 16.5377 12.9715 15.2069 12.9715C13.8758 12.9715 12.7969 11.8963 12.7969 10.5698C12.7969 9.24313 13.8758 8.16797 15.2069 8.16797C16.5377 8.16797 17.6166 9.24313 17.6166 10.5698Z" fill="black"/>
</svg>
