<svg width="20" height="20" viewBox="0 0 20 20" fill="none" xmlns="http://www.w3.org/2000/svg">
<path d="M10.0033 3.27633C11.029 2.35814 12.3675 1.86769 13.7436 1.90576C15.1197 1.94382 16.429 2.50752 17.4023 3.48101C18.3749 4.45341 18.9386 5.76099 18.978 7.13571C19.0174 8.51043 18.5295 9.84814 17.6142 10.8746L10.0015 18.4981L2.39064 10.8746C1.4743 9.84761 0.985893 8.50875 1.02569 7.13292C1.06549 5.7571 1.63048 4.44871 2.60466 3.47637C3.57884 2.50403 4.88829 1.94151 6.26419 1.90431C7.64008 1.86711 8.97802 2.35805 10.0033 3.27633ZM16.1312 4.74949C15.4826 4.10145 14.6107 3.72616 13.6942 3.70062C12.7778 3.67508 11.8863 4.00122 11.2027 4.61214L10.0042 5.68761L8.80486 4.61304C8.12083 4.00139 7.22855 3.67489 6.31131 3.7006C5.39406 3.72631 4.52147 4.10228 3.87278 4.75128C3.23024 5.39379 2.85518 6.25599 2.82319 7.16409C2.79121 8.07219 3.10468 8.95864 3.70042 9.64476L10.0024 15.9566L16.3044 9.64566C16.9008 8.95927 17.2146 8.07217 17.1825 7.16344C17.1503 6.2547 16.7746 5.39201 16.1312 4.74949Z" fill="black"/>
</svg>
